<svg xmlns="http://www.w3.org/2000/svg" width="500" height="500"><path fill="#000000" fill-rule="evenodd" d="M257.5.5q1.983-.255 3.5 1a1896 1896 0 0 1 105 141q36.433 54.853 62 116 40.831 108.906-42.5 189.5-72.912 61.623-168 48Q103.84 472.827 63 364.5q-10.638-35.267-7-72 6.057-63.23 30-122 9.976-23.978 26-44a576 576 0 0 1 25 32 179 179 0 0 0 11.5 11q45.626-90.546 109-169M256.95 116.85q49.54 57.46 89.55 122.4a254.4 254.4 0 0 1 20.7 45q16.99 66.84-36.45 110.25-51.68 36.37-113.4 21.6-66.55-20.65-76.95-89.55-2.52-21.72 4.5-42.3a306 306 0 0 1 24.3-48.6l27-39.6a7483 7483 0 0 0 60.75-79.2"/></svg>