<svg xmlns="http://www.w3.org/2000/svg" width="500" height="500"><path fill="#000000" fill-rule="evenodd" d="M257.5.5q1.983-.255 3.5 1a1896 1896 0 0 1 105 141q36.433 54.853 62 116 40.831 108.906-42.5 189.5-72.912 61.623-168 48Q103.84 472.827 63 364.5q-10.638-35.267-7-72 6.057-63.23 30-122 9.976-23.978 26-44a576 576 0 0 1 25 32 179 179 0 0 0 11.5 11q45.626-90.546 109-169M254.5 95.5q55.04 63.84 99.5 136a282.7 282.7 0 0 1 23 50q18.876 74.262-40.5 122.5-57.426 40.409-126 24-73.949-22.947-85.5-99.5-2.803-24.137 5-47a340 340 0 0 1 27-54l30-44a8315 8315 0 0 0 67.5-88" style="opacity:.993"/></svg>
